<mxfile host="app.diagrams.net" agent="Mozilla/5.0 (Windows NT 10.0; Win64; x64; rv:130.0) Gecko/20100101 Firefox/130.0" version="24.7.16">
  <diagram name="Page-1" id="bmq7K15Yt_cIyKfnH5da">
    <mxGraphModel dx="953" dy="504" grid="1" gridSize="10" guides="1" tooltips="1" connect="1" arrows="1" fold="1" page="1" pageScale="1" pageWidth="850" pageHeight="1100" math="0" shadow="0">
      <root>
        <mxCell id="0" />
        <mxCell id="1" parent="0" />
        <mxCell id="ia_GmnqNmGPdR_kUSbma-20" style="edgeStyle=orthogonalEdgeStyle;rounded=0;orthogonalLoop=1;jettySize=auto;html=1;" parent="1" source="ia_GmnqNmGPdR_kUSbma-4" edge="1">
          <mxGeometry relative="1" as="geometry">
            <mxPoint x="260" y="240" as="targetPoint" />
          </mxGeometry>
        </mxCell>
        <mxCell id="ia_GmnqNmGPdR_kUSbma-4" value="Register" style="rounded=0;whiteSpace=wrap;html=1;" parent="1" vertex="1">
          <mxGeometry x="200" y="140" width="120" height="60" as="geometry" />
        </mxCell>
        <mxCell id="ia_GmnqNmGPdR_kUSbma-16" style="edgeStyle=orthogonalEdgeStyle;rounded=0;orthogonalLoop=1;jettySize=auto;html=1;entryX=0.5;entryY=0;entryDx=0;entryDy=0;" parent="1" source="ia_GmnqNmGPdR_kUSbma-9" target="ia_GmnqNmGPdR_kUSbma-11" edge="1">
          <mxGeometry relative="1" as="geometry" />
        </mxCell>
        <mxCell id="ia_GmnqNmGPdR_kUSbma-9" value="Start" style="ellipse;whiteSpace=wrap;html=1;" parent="1" vertex="1">
          <mxGeometry x="385" y="20" width="120" height="80" as="geometry" />
        </mxCell>
        <mxCell id="ia_GmnqNmGPdR_kUSbma-10" value="End" style="ellipse;whiteSpace=wrap;html=1;" parent="1" vertex="1">
          <mxGeometry x="570" y="1020" width="120" height="80" as="geometry" />
        </mxCell>
        <mxCell id="ia_GmnqNmGPdR_kUSbma-12" style="edgeStyle=orthogonalEdgeStyle;rounded=0;orthogonalLoop=1;jettySize=auto;html=1;" parent="1" source="ia_GmnqNmGPdR_kUSbma-11" edge="1">
          <mxGeometry relative="1" as="geometry">
            <mxPoint x="320" y="170" as="targetPoint" />
          </mxGeometry>
        </mxCell>
        <mxCell id="ia_GmnqNmGPdR_kUSbma-13" value="no" style="edgeLabel;html=1;align=center;verticalAlign=middle;resizable=0;points=[];" parent="ia_GmnqNmGPdR_kUSbma-12" vertex="1" connectable="0">
          <mxGeometry x="-0.275" y="-1" relative="1" as="geometry">
            <mxPoint x="-4" y="-19" as="offset" />
          </mxGeometry>
        </mxCell>
        <mxCell id="ia_GmnqNmGPdR_kUSbma-14" style="edgeStyle=orthogonalEdgeStyle;rounded=0;orthogonalLoop=1;jettySize=auto;html=1;entryX=0;entryY=0.5;entryDx=0;entryDy=0;" parent="1" target="ia_GmnqNmGPdR_kUSbma-17" edge="1">
          <mxGeometry relative="1" as="geometry">
            <mxPoint x="512.5" y="230" as="targetPoint" />
            <mxPoint x="447.5" y="170" as="sourcePoint" />
            <Array as="points" />
          </mxGeometry>
        </mxCell>
        <mxCell id="ia_GmnqNmGPdR_kUSbma-15" value="yes" style="edgeLabel;html=1;align=center;verticalAlign=middle;resizable=0;points=[];" parent="ia_GmnqNmGPdR_kUSbma-14" vertex="1" connectable="0">
          <mxGeometry x="-0.5869" y="-3" relative="1" as="geometry">
            <mxPoint x="45" y="-23" as="offset" />
          </mxGeometry>
        </mxCell>
        <mxCell id="ia_GmnqNmGPdR_kUSbma-11" value="have an account" style="rhombus;whiteSpace=wrap;html=1;" parent="1" vertex="1">
          <mxGeometry x="405" y="130" width="80" height="80" as="geometry" />
        </mxCell>
        <mxCell id="ia_GmnqNmGPdR_kUSbma-26" style="edgeStyle=orthogonalEdgeStyle;rounded=0;orthogonalLoop=1;jettySize=auto;html=1;" parent="1" source="ia_GmnqNmGPdR_kUSbma-17" edge="1">
          <mxGeometry relative="1" as="geometry">
            <mxPoint x="630" y="280" as="targetPoint" />
          </mxGeometry>
        </mxCell>
        <mxCell id="ia_GmnqNmGPdR_kUSbma-17" value="Log in" style="rounded=0;whiteSpace=wrap;html=1;" parent="1" vertex="1">
          <mxGeometry x="570" y="140" width="120" height="60" as="geometry" />
        </mxCell>
        <mxCell id="ia_GmnqNmGPdR_kUSbma-22" style="edgeStyle=orthogonalEdgeStyle;rounded=0;orthogonalLoop=1;jettySize=auto;html=1;" parent="1" source="ia_GmnqNmGPdR_kUSbma-18" edge="1">
          <mxGeometry relative="1" as="geometry">
            <mxPoint x="259.86" y="340" as="targetPoint" />
            <Array as="points">
              <mxPoint x="169.86" y="530" />
              <mxPoint x="169.86" y="340" />
            </Array>
          </mxGeometry>
        </mxCell>
        <mxCell id="ia_GmnqNmGPdR_kUSbma-23" value="no" style="edgeLabel;html=1;align=center;verticalAlign=middle;resizable=0;points=[];" parent="ia_GmnqNmGPdR_kUSbma-22" vertex="1" connectable="0">
          <mxGeometry x="-0.8494" y="1" relative="1" as="geometry">
            <mxPoint y="-21" as="offset" />
          </mxGeometry>
        </mxCell>
        <mxCell id="ia_GmnqNmGPdR_kUSbma-18" value="Approved" style="rhombus;whiteSpace=wrap;html=1;" parent="1" vertex="1">
          <mxGeometry x="219.86" y="490" width="80" height="80" as="geometry" />
        </mxCell>
        <mxCell id="ia_GmnqNmGPdR_kUSbma-21" style="edgeStyle=orthogonalEdgeStyle;rounded=0;orthogonalLoop=1;jettySize=auto;html=1;entryX=0.5;entryY=0;entryDx=0;entryDy=0;" parent="1" source="ia_GmnqNmGPdR_kUSbma-19" target="ia_GmnqNmGPdR_kUSbma-18" edge="1">
          <mxGeometry relative="1" as="geometry" />
        </mxCell>
        <mxCell id="ia_GmnqNmGPdR_kUSbma-19" value="Wait for approval" style="rounded=0;whiteSpace=wrap;html=1;" parent="1" vertex="1">
          <mxGeometry x="199.86" y="370" width="120" height="60" as="geometry" />
        </mxCell>
        <mxCell id="ia_GmnqNmGPdR_kUSbma-24" style="edgeStyle=orthogonalEdgeStyle;rounded=0;orthogonalLoop=1;jettySize=auto;html=1;exitX=1;exitY=0.5;exitDx=0;exitDy=0;" parent="1" source="ia_GmnqNmGPdR_kUSbma-18" edge="1">
          <mxGeometry relative="1" as="geometry">
            <mxPoint x="500" y="170" as="targetPoint" />
            <Array as="points">
              <mxPoint x="350" y="530" />
              <mxPoint x="350" y="230" />
              <mxPoint x="500" y="230" />
            </Array>
          </mxGeometry>
        </mxCell>
        <mxCell id="ia_GmnqNmGPdR_kUSbma-25" value="yes" style="edgeLabel;html=1;align=center;verticalAlign=middle;resizable=0;points=[];" parent="ia_GmnqNmGPdR_kUSbma-24" vertex="1" connectable="0">
          <mxGeometry x="-0.9048" y="2" relative="1" as="geometry">
            <mxPoint x="-1" y="-18" as="offset" />
          </mxGeometry>
        </mxCell>
        <mxCell id="ia_GmnqNmGPdR_kUSbma-28" style="edgeStyle=orthogonalEdgeStyle;rounded=0;orthogonalLoop=1;jettySize=auto;html=1;exitX=1;exitY=0.5;exitDx=0;exitDy=0;" parent="1" source="ia_GmnqNmGPdR_kUSbma-27" edge="1">
          <mxGeometry relative="1" as="geometry">
            <mxPoint x="450" y="120" as="targetPoint" />
            <mxPoint x="569.7100000000003" y="450" as="sourcePoint" />
            <Array as="points">
              <mxPoint x="740" y="440" />
              <mxPoint x="740" y="120" />
            </Array>
          </mxGeometry>
        </mxCell>
        <mxCell id="ia_GmnqNmGPdR_kUSbma-29" value="no" style="edgeLabel;html=1;align=center;verticalAlign=middle;resizable=0;points=[];" parent="ia_GmnqNmGPdR_kUSbma-28" vertex="1" connectable="0">
          <mxGeometry x="-0.8958" y="3" relative="1" as="geometry">
            <mxPoint x="-14" y="-17" as="offset" />
          </mxGeometry>
        </mxCell>
        <mxCell id="ia_GmnqNmGPdR_kUSbma-30" style="edgeStyle=orthogonalEdgeStyle;rounded=0;orthogonalLoop=1;jettySize=auto;html=1;" parent="1" source="ia_GmnqNmGPdR_kUSbma-27" edge="1">
          <mxGeometry relative="1" as="geometry">
            <mxPoint x="630" y="560" as="targetPoint" />
          </mxGeometry>
        </mxCell>
        <mxCell id="ia_GmnqNmGPdR_kUSbma-31" value="yes" style="edgeLabel;html=1;align=center;verticalAlign=middle;resizable=0;points=[];" parent="ia_GmnqNmGPdR_kUSbma-30" vertex="1" connectable="0">
          <mxGeometry x="-0.2298" y="2" relative="1" as="geometry">
            <mxPoint x="18" y="2" as="offset" />
          </mxGeometry>
        </mxCell>
        <mxCell id="ia_GmnqNmGPdR_kUSbma-27" value="&lt;div&gt;Authentication&lt;/div&gt;&lt;div&gt;successfull&lt;br&gt;&lt;/div&gt;" style="rhombus;whiteSpace=wrap;html=1;" parent="1" vertex="1">
          <mxGeometry x="569.71" y="390" width="120" height="100" as="geometry" />
        </mxCell>
        <mxCell id="ia_GmnqNmGPdR_kUSbma-38" value="" style="edgeStyle=orthogonalEdgeStyle;rounded=0;orthogonalLoop=1;jettySize=auto;html=1;exitX=0.5;exitY=1;exitDx=0;exitDy=0;" parent="1" source="ia_GmnqNmGPdR_kUSbma-32" target="ia_GmnqNmGPdR_kUSbma-37" edge="1">
          <mxGeometry relative="1" as="geometry">
            <mxPoint x="630.0588235294117" y="689.9999999999998" as="sourcePoint" />
          </mxGeometry>
        </mxCell>
        <mxCell id="ia_GmnqNmGPdR_kUSbma-32" value="show main page" style="rounded=0;whiteSpace=wrap;html=1;" parent="1" vertex="1">
          <mxGeometry x="570" y="560" width="120" height="60" as="geometry" />
        </mxCell>
        <mxCell id="ia_GmnqNmGPdR_kUSbma-34" style="edgeStyle=orthogonalEdgeStyle;rounded=0;orthogonalLoop=1;jettySize=auto;html=1;entryX=0.5;entryY=0;entryDx=0;entryDy=0;" parent="1" source="ia_GmnqNmGPdR_kUSbma-33" target="ia_GmnqNmGPdR_kUSbma-27" edge="1">
          <mxGeometry relative="1" as="geometry" />
        </mxCell>
        <mxCell id="ia_GmnqNmGPdR_kUSbma-33" value="&lt;div&gt;email &amp;amp;&amp;nbsp;&lt;/div&gt;&lt;div&gt;password&lt;/div&gt;" style="shape=parallelogram;perimeter=parallelogramPerimeter;whiteSpace=wrap;html=1;fixedSize=1;" parent="1" vertex="1">
          <mxGeometry x="569.71" y="280" width="120" height="60" as="geometry" />
        </mxCell>
        <mxCell id="ia_GmnqNmGPdR_kUSbma-36" style="edgeStyle=orthogonalEdgeStyle;rounded=0;orthogonalLoop=1;jettySize=auto;html=1;entryX=0.5;entryY=0;entryDx=0;entryDy=0;" parent="1" source="ia_GmnqNmGPdR_kUSbma-35" target="ia_GmnqNmGPdR_kUSbma-19" edge="1">
          <mxGeometry relative="1" as="geometry" />
        </mxCell>
        <mxCell id="ia_GmnqNmGPdR_kUSbma-35" value="personal information" style="shape=parallelogram;perimeter=parallelogramPerimeter;whiteSpace=wrap;html=1;fixedSize=1;" parent="1" vertex="1">
          <mxGeometry x="199.86" y="240" width="120" height="60" as="geometry" />
        </mxCell>
        <mxCell id="ia_GmnqNmGPdR_kUSbma-39" style="edgeStyle=orthogonalEdgeStyle;rounded=0;orthogonalLoop=1;jettySize=auto;html=1;entryX=1;entryY=0.5;entryDx=0;entryDy=0;" parent="1" source="ia_GmnqNmGPdR_kUSbma-37" target="ia_GmnqNmGPdR_kUSbma-63" edge="1">
          <mxGeometry relative="1" as="geometry">
            <mxPoint x="430" y="780" as="targetPoint" />
          </mxGeometry>
        </mxCell>
        <mxCell id="ia_GmnqNmGPdR_kUSbma-40" value="see the results" style="edgeLabel;html=1;align=center;verticalAlign=middle;resizable=0;points=[];" parent="ia_GmnqNmGPdR_kUSbma-39" vertex="1" connectable="0">
          <mxGeometry x="0.0269" relative="1" as="geometry">
            <mxPoint x="43" y="-20" as="offset" />
          </mxGeometry>
        </mxCell>
        <mxCell id="ia_GmnqNmGPdR_kUSbma-41" style="edgeStyle=orthogonalEdgeStyle;rounded=0;orthogonalLoop=1;jettySize=auto;html=1;" parent="1" source="ia_GmnqNmGPdR_kUSbma-37" edge="1">
          <mxGeometry relative="1" as="geometry">
            <mxPoint x="800" y="780" as="targetPoint" />
          </mxGeometry>
        </mxCell>
        <mxCell id="ia_GmnqNmGPdR_kUSbma-43" style="edgeStyle=orthogonalEdgeStyle;rounded=0;orthogonalLoop=1;jettySize=auto;html=1;" parent="1" source="ia_GmnqNmGPdR_kUSbma-37" edge="1">
          <mxGeometry relative="1" as="geometry">
            <mxPoint x="629.7100000000003" y="900" as="targetPoint" />
          </mxGeometry>
        </mxCell>
        <mxCell id="ia_GmnqNmGPdR_kUSbma-44" value="end session" style="edgeLabel;html=1;align=center;verticalAlign=middle;resizable=0;points=[];" parent="ia_GmnqNmGPdR_kUSbma-43" vertex="1" connectable="0">
          <mxGeometry x="-0.3188" y="1" relative="1" as="geometry">
            <mxPoint x="39" y="6" as="offset" />
          </mxGeometry>
        </mxCell>
        <mxCell id="ia_GmnqNmGPdR_kUSbma-37" value="&lt;div&gt;choose what&amp;nbsp;&lt;/div&gt;&lt;div&gt;to do&lt;/div&gt;" style="rhombus;whiteSpace=wrap;html=1;" parent="1" vertex="1">
          <mxGeometry x="569.71" y="730" width="120" height="100" as="geometry" />
        </mxCell>
        <mxCell id="ia_GmnqNmGPdR_kUSbma-42" value="edit profile" style="edgeLabel;html=1;align=center;verticalAlign=middle;resizable=0;points=[];" parent="1" vertex="1" connectable="0">
          <mxGeometry x="739.9986648702065" y="759.9998829942074" as="geometry" />
        </mxCell>
        <mxCell id="ia_GmnqNmGPdR_kUSbma-46" style="edgeStyle=orthogonalEdgeStyle;rounded=0;orthogonalLoop=1;jettySize=auto;html=1;" parent="1" source="ia_GmnqNmGPdR_kUSbma-45" edge="1">
          <mxGeometry relative="1" as="geometry">
            <mxPoint x="629.7100000000003" y="1020" as="targetPoint" />
          </mxGeometry>
        </mxCell>
        <mxCell id="ia_GmnqNmGPdR_kUSbma-45" value="log off" style="rounded=0;whiteSpace=wrap;html=1;" parent="1" vertex="1">
          <mxGeometry x="569.71" y="900" width="120" height="60" as="geometry" />
        </mxCell>
        <mxCell id="ia_GmnqNmGPdR_kUSbma-48" style="edgeStyle=orthogonalEdgeStyle;rounded=0;orthogonalLoop=1;jettySize=auto;html=1;" parent="1" source="ia_GmnqNmGPdR_kUSbma-47" edge="1">
          <mxGeometry relative="1" as="geometry">
            <mxPoint x="990" y="780" as="targetPoint" />
          </mxGeometry>
        </mxCell>
        <mxCell id="ia_GmnqNmGPdR_kUSbma-47" value="show profile information" style="rounded=0;whiteSpace=wrap;html=1;" parent="1" vertex="1">
          <mxGeometry x="800" y="750" width="120" height="60" as="geometry" />
        </mxCell>
        <mxCell id="ia_GmnqNmGPdR_kUSbma-53" style="edgeStyle=orthogonalEdgeStyle;rounded=0;orthogonalLoop=1;jettySize=auto;html=1;entryX=0.5;entryY=1;entryDx=0;entryDy=0;" parent="1" source="ia_GmnqNmGPdR_kUSbma-49" edge="1">
          <mxGeometry relative="1" as="geometry">
            <mxPoint x="1065" y="719.9999999999998" as="targetPoint" />
          </mxGeometry>
        </mxCell>
        <mxCell id="ia_GmnqNmGPdR_kUSbma-49" value="&lt;div&gt;personal information &lt;br&gt;&lt;/div&gt;&lt;div&gt;inside of the fileds&lt;br&gt;&lt;/div&gt;" style="shape=parallelogram;perimeter=parallelogramPerimeter;whiteSpace=wrap;html=1;fixedSize=1;" parent="1" vertex="1">
          <mxGeometry x="980" y="750" width="170" height="60" as="geometry" />
        </mxCell>
        <mxCell id="ia_GmnqNmGPdR_kUSbma-54" style="edgeStyle=orthogonalEdgeStyle;rounded=0;orthogonalLoop=1;jettySize=auto;html=1;" parent="1" edge="1">
          <mxGeometry relative="1" as="geometry">
            <mxPoint x="630" y="680" as="targetPoint" />
            <mxPoint x="1025" y="680.0000000000002" as="sourcePoint" />
          </mxGeometry>
        </mxCell>
        <mxCell id="ia_GmnqNmGPdR_kUSbma-55" value="no" style="edgeLabel;html=1;align=center;verticalAlign=middle;resizable=0;points=[];" parent="ia_GmnqNmGPdR_kUSbma-54" vertex="1" connectable="0">
          <mxGeometry x="-0.7379" y="-3" relative="1" as="geometry">
            <mxPoint x="31" y="-17" as="offset" />
          </mxGeometry>
        </mxCell>
        <mxCell id="ia_GmnqNmGPdR_kUSbma-56" style="edgeStyle=orthogonalEdgeStyle;rounded=0;orthogonalLoop=1;jettySize=auto;html=1;exitX=1;exitY=0.5;exitDx=0;exitDy=0;" parent="1" edge="1">
          <mxGeometry relative="1" as="geometry">
            <mxPoint x="1180" y="680.2068965517242" as="targetPoint" />
            <mxPoint x="1105" y="679.9999999999998" as="sourcePoint" />
          </mxGeometry>
        </mxCell>
        <mxCell id="ia_GmnqNmGPdR_kUSbma-57" value="yes " style="edgeLabel;html=1;align=center;verticalAlign=middle;resizable=0;points=[];" parent="ia_GmnqNmGPdR_kUSbma-56" vertex="1" connectable="0">
          <mxGeometry x="-0.1044" relative="1" as="geometry">
            <mxPoint y="-20" as="offset" />
          </mxGeometry>
        </mxCell>
        <mxCell id="ia_GmnqNmGPdR_kUSbma-50" value="save" style="rhombus;whiteSpace=wrap;html=1;" parent="1" vertex="1">
          <mxGeometry x="1025" y="640" width="80" height="80" as="geometry" />
        </mxCell>
        <mxCell id="ia_GmnqNmGPdR_kUSbma-60" value="" style="edgeStyle=orthogonalEdgeStyle;rounded=0;orthogonalLoop=1;jettySize=auto;html=1;exitX=1;exitY=0.5;exitDx=0;exitDy=0;" parent="1" source="ia_GmnqNmGPdR_kUSbma-58" edge="1">
          <mxGeometry relative="1" as="geometry">
            <mxPoint x="740" y="680" as="targetPoint" />
            <Array as="points">
              <mxPoint x="1340" y="680" />
              <mxPoint x="1340" y="610" />
              <mxPoint x="740" y="610" />
            </Array>
          </mxGeometry>
        </mxCell>
        <mxCell id="ia_GmnqNmGPdR_kUSbma-58" value="change profile" style="rounded=0;whiteSpace=wrap;html=1;" parent="1" vertex="1">
          <mxGeometry x="1180" y="652.5" width="120" height="55" as="geometry" />
        </mxCell>
        <mxCell id="ia_GmnqNmGPdR_kUSbma-66" style="edgeStyle=orthogonalEdgeStyle;rounded=0;orthogonalLoop=1;jettySize=auto;html=1;" parent="1" source="ia_GmnqNmGPdR_kUSbma-63" edge="1">
          <mxGeometry relative="1" as="geometry">
            <mxPoint x="160" y="780" as="targetPoint" />
          </mxGeometry>
        </mxCell>
        <mxCell id="ia_GmnqNmGPdR_kUSbma-68" value="yes" style="edgeLabel;html=1;align=center;verticalAlign=middle;resizable=0;points=[];" parent="ia_GmnqNmGPdR_kUSbma-66" vertex="1" connectable="0">
          <mxGeometry x="0.1614" y="2" relative="1" as="geometry">
            <mxPoint x="16" y="-22" as="offset" />
          </mxGeometry>
        </mxCell>
        <mxCell id="ia_GmnqNmGPdR_kUSbma-81" style="edgeStyle=orthogonalEdgeStyle;rounded=0;orthogonalLoop=1;jettySize=auto;html=1;entryX=0.5;entryY=1;entryDx=0;entryDy=0;" parent="1" source="ia_GmnqNmGPdR_kUSbma-63" target="ia_GmnqNmGPdR_kUSbma-65" edge="1">
          <mxGeometry relative="1" as="geometry" />
        </mxCell>
        <mxCell id="ia_GmnqNmGPdR_kUSbma-82" value="no" style="edgeLabel;html=1;align=center;verticalAlign=middle;resizable=0;points=[];" parent="ia_GmnqNmGPdR_kUSbma-81" vertex="1" connectable="0">
          <mxGeometry x="-0.2" y="-2" relative="1" as="geometry">
            <mxPoint x="13" as="offset" />
          </mxGeometry>
        </mxCell>
        <mxCell id="ia_GmnqNmGPdR_kUSbma-63" value="search" style="rhombus;whiteSpace=wrap;html=1;" parent="1" vertex="1">
          <mxGeometry x="240" y="730" width="120" height="100" as="geometry" />
        </mxCell>
        <mxCell id="ia_GmnqNmGPdR_kUSbma-84" style="edgeStyle=orthogonalEdgeStyle;rounded=0;orthogonalLoop=1;jettySize=auto;html=1;" parent="1" source="ia_GmnqNmGPdR_kUSbma-65" target="ia_GmnqNmGPdR_kUSbma-83" edge="1">
          <mxGeometry relative="1" as="geometry" />
        </mxCell>
        <mxCell id="ia_GmnqNmGPdR_kUSbma-65" value="view the results" style="rounded=0;whiteSpace=wrap;html=1;" parent="1" vertex="1">
          <mxGeometry x="240" y="620" width="120" height="60" as="geometry" />
        </mxCell>
        <mxCell id="ia_GmnqNmGPdR_kUSbma-79" style="edgeStyle=orthogonalEdgeStyle;rounded=0;orthogonalLoop=1;jettySize=auto;html=1;entryX=0.5;entryY=1;entryDx=0;entryDy=0;" parent="1" source="ia_GmnqNmGPdR_kUSbma-69" target="ia_GmnqNmGPdR_kUSbma-71" edge="1">
          <mxGeometry relative="1" as="geometry" />
        </mxCell>
        <mxCell id="ia_GmnqNmGPdR_kUSbma-69" value="&lt;div&gt;date &amp;amp;/&amp;nbsp;&lt;/div&gt;&lt;div&gt;exam item &amp;amp;/&lt;/div&gt;&lt;div&gt;abnormal result&lt;br&gt;&lt;/div&gt;" style="shape=parallelogram;perimeter=parallelogramPerimeter;whiteSpace=wrap;html=1;fixedSize=1;" parent="1" vertex="1">
          <mxGeometry x="30" y="760" width="140" height="50" as="geometry" />
        </mxCell>
        <mxCell id="ia_GmnqNmGPdR_kUSbma-73" style="edgeStyle=orthogonalEdgeStyle;rounded=0;orthogonalLoop=1;jettySize=auto;html=1;entryX=0;entryY=0.5;entryDx=0;entryDy=0;" parent="1" source="ia_GmnqNmGPdR_kUSbma-71" target="ia_GmnqNmGPdR_kUSbma-65" edge="1">
          <mxGeometry relative="1" as="geometry" />
        </mxCell>
        <mxCell id="ia_GmnqNmGPdR_kUSbma-71" value="filter the results" style="rounded=0;whiteSpace=wrap;html=1;" parent="1" vertex="1">
          <mxGeometry x="40" y="620" width="120" height="60" as="geometry" />
        </mxCell>
        <mxCell id="ia_GmnqNmGPdR_kUSbma-85" style="edgeStyle=orthogonalEdgeStyle;rounded=0;orthogonalLoop=1;jettySize=auto;html=1;" parent="1" source="ia_GmnqNmGPdR_kUSbma-83" edge="1">
          <mxGeometry relative="1" as="geometry">
            <mxPoint x="630" y="650" as="targetPoint" />
          </mxGeometry>
        </mxCell>
        <mxCell id="ia_GmnqNmGPdR_kUSbma-87" style="edgeStyle=orthogonalEdgeStyle;rounded=0;orthogonalLoop=1;jettySize=auto;html=1;" parent="1" edge="1">
          <mxGeometry relative="1" as="geometry">
            <mxPoint x="414.97" y="780.02" as="targetPoint" />
            <mxPoint x="460" y="701" as="sourcePoint" />
            <Array as="points">
              <mxPoint x="460" y="720" />
              <mxPoint x="415" y="720" />
            </Array>
          </mxGeometry>
        </mxCell>
        <mxCell id="ia_GmnqNmGPdR_kUSbma-88" value="no" style="edgeLabel;html=1;align=center;verticalAlign=middle;resizable=0;points=[];" parent="ia_GmnqNmGPdR_kUSbma-87" vertex="1" connectable="0">
          <mxGeometry x="-0.1237" y="-1" relative="1" as="geometry">
            <mxPoint y="-11" as="offset" />
          </mxGeometry>
        </mxCell>
        <mxCell id="ia_GmnqNmGPdR_kUSbma-83" value="exit" style="rhombus;whiteSpace=wrap;html=1;" parent="1" vertex="1">
          <mxGeometry x="405" y="600" width="120" height="100" as="geometry" />
        </mxCell>
        <mxCell id="ia_GmnqNmGPdR_kUSbma-86" value="yes" style="text;html=1;align=center;verticalAlign=middle;resizable=0;points=[];autosize=1;strokeColor=none;fillColor=none;" parent="1" vertex="1">
          <mxGeometry x="530" y="620" width="40" height="30" as="geometry" />
        </mxCell>
      </root>
    </mxGraphModel>
  </diagram>
</mxfile>
